<svg width="32" height="32" viewBox="0 0 32 32" fill="none" xmlns="http://www.w3.org/2000/svg">
<circle cx="16" cy="16" r="15.5" stroke="#FBAB34"/>
<path d="M14.4829 21.6442C14.1806 21.9466 13.6904 21.9466 13.388 21.6442L8.22676 16.4829C8.07929 16.3355 8.00375 16.1433 8.00014 15.95C7.99995 15.9403 7.99996 15.9306 8.00014 15.9208C8.00197 15.822 8.02231 15.7278 8.05785 15.6413C8.09564 15.5492 8.15194 15.4629 8.22676 15.388L13.388 10.2268C13.6904 9.92441 14.1806 9.92441 14.4829 10.2268C14.7853 10.5291 14.7853 11.0193 14.4829 11.3216L10.6433 15.1613L23.2258 15.1613C23.6534 15.1613 24 15.5079 24 15.9355C24 16.3631 23.6534 16.7097 23.2258 16.7097L10.6433 16.7097L14.4829 20.5493C14.7853 20.8517 14.7853 21.3419 14.4829 21.6442Z" fill="#FBAB34"/>
</svg>
