<svg width="16" height="16" viewBox="0 0 16 16" fill="none" xmlns="http://www.w3.org/2000/svg">
<path fill-rule="evenodd" clip-rule="evenodd" d="M4.10431 2.9134C3.77545 2.58453 3.24226 2.58453 2.9134 2.9134C2.58453 3.24226 2.58453 3.77545 2.9134 4.10431L6.80916 8.00008L2.9134 11.8959C2.58453 12.2247 2.58453 12.7579 2.9134 13.0868C3.24226 13.4156 3.77545 13.4156 4.10431 13.0868L8.00008 9.191L11.8959 13.0868C12.2247 13.4156 12.7579 13.4156 13.0868 13.0868C13.4156 12.7579 13.4156 12.2247 13.0868 11.8959L9.191 8.00008L13.0868 4.10431C13.4156 3.77545 13.4156 3.24226 13.0868 2.9134C12.7579 2.58453 12.2247 2.58453 11.8959 2.9134L8.00008 6.80916L4.10431 2.9134Z" fill="#8C8A97"/>
</svg>
