<svg width="24" height="24" viewBox="0 0 24 24" fill="none" xmlns="http://www.w3.org/2000/svg">
<path fill-rule="evenodd" clip-rule="evenodd" d="M11.9999 2.58331C9.60012 2.58331 7.27202 3.62071 5.27656 5.16297C3.27609 6.7091 1.54938 8.8071 0.337454 11.049L0.337099 11.0497C-0.00136364 11.677 -0.00136364 12.4357 0.337099 13.063L0.337558 13.0639C1.38446 14.9994 2.81475 16.8272 4.47328 18.2858L2.79584 19.9633C2.43785 20.3213 2.43785 20.9017 2.79584 21.2597C3.15382 21.6177 3.73424 21.6177 4.09223 21.2597L6.45081 18.9011C6.47212 18.8817 6.49267 18.8612 6.51238 18.8395L9.91345 15.4385L9.92629 15.4259L9.93889 15.413L15.3586 9.99335L15.3714 9.98074L15.384 9.96788L18.7997 6.55217C18.8082 6.54403 18.8165 6.5357 18.8247 6.52718L21.2037 4.14819C21.5617 3.79021 21.5617 3.20979 21.2037 2.8518C20.8457 2.49382 20.2653 2.49382 19.9073 2.8518L18.0723 4.68683C16.2295 3.41081 14.1427 2.58331 11.9999 2.58331ZM16.7517 6.00746C15.2087 4.99726 13.5784 4.41669 11.9999 4.41669C10.1279 4.41669 8.18421 5.23283 6.39772 6.61358C4.61632 7.99039 3.05097 9.88477 1.95041 11.9206C1.95048 11.9205 1.95055 11.9203 1.95062 11.9202L1.14386 11.485L1.95026 11.9209C1.95031 11.9208 1.95036 11.9207 1.95041 11.9206C1.90533 12.0045 1.90536 12.1084 1.9505 12.1923C2.9207 13.9858 4.25142 15.6693 5.77265 16.9865L8.0439 14.7152C6.79497 12.8616 6.9903 10.3239 8.6299 8.68435C10.2695 7.04474 12.8072 6.84941 14.6608 8.09834L16.7517 6.00746ZM9.92629 9.98074C10.8453 9.06175 12.223 8.88011 13.3233 9.4358L9.38136 13.3778C8.82567 12.2774 9.00731 10.8997 9.92629 9.98074ZM20.0569 7.59545C20.4419 7.26664 21.0205 7.31215 21.3493 7.69712C22.2327 8.73134 23.0207 9.86235 23.6624 11.049L23.6628 11.0497C24.0012 11.6771 24.0012 12.4357 23.6628 13.0631L23.6569 13.0737C22.4452 15.3113 20.7207 17.405 18.7232 18.9487C16.7278 20.4908 14.3997 21.5282 11.9999 21.5282L11.9919 21.5281C10.8359 21.527 9.69599 21.2822 8.6085 20.8613C8.13636 20.6786 7.90176 20.1477 8.08451 19.6755C8.26725 19.2034 8.79814 18.9688 9.27028 19.1515C10.1823 19.5046 11.1004 19.6948 11.9999 19.6948L12.0068 19.6948C13.8767 19.6928 15.8178 18.877 17.6021 17.498C19.3836 16.1213 20.949 14.2271 22.0496 12.1917L22.0516 12.1881C22.0945 12.105 22.0938 12.003 22.0494 11.9205C21.4737 10.856 20.7609 9.83108 19.9552 8.88784C19.6264 8.50288 19.672 7.92426 20.0569 7.59545Z" fill="#E0DEEA"/>
</svg>
