<svg width="24" height="24" viewBox="0 0 24 24" fill="none" xmlns="http://www.w3.org/2000/svg">
<path fill-rule="evenodd" clip-rule="evenodd" d="M2.17729 11.5971C3.25425 9.60556 4.786 7.75216 6.52915 6.40504C8.27736 5.05402 10.1794 4.25537 12.0112 4.25537C13.8431 4.25537 15.7451 5.05401 17.4933 6.40516C19.2365 7.75247 20.7683 9.60626 21.8453 11.5985C21.8893 11.6804 21.8893 11.7818 21.8454 11.8637C20.7685 13.8554 19.2366 15.709 17.4933 17.0563C15.7451 18.4073 13.8431 19.2059 12.0112 19.2059C10.1794 19.2059 8.27738 18.4073 6.52919 17.0561C4.78602 15.7089 3.25425 13.8552 2.17729 11.863C2.13312 11.7809 2.13312 11.6792 2.17729 11.5971ZM2.17729 11.5971C2.17734 11.597 2.17738 11.5969 2.17743 11.5968L1.38798 11.1709L2.17703 11.5976C2.17712 11.5974 2.17721 11.5972 2.17729 11.5971ZM12.0112 2.4613C9.66294 2.4613 7.38476 3.47646 5.43211 4.98548C3.47454 6.49829 1.78485 8.55098 0.5989 10.7442L0.598502 10.745C0.267296 11.3589 0.267296 12.1012 0.598502 12.7151L0.598849 12.7158C1.78479 14.9096 3.47448 16.9627 5.43207 18.4757C7.38474 19.9848 9.66293 21 12.0112 21C14.3595 21 16.6377 19.9848 18.5904 18.4758C20.5479 16.963 22.2376 14.9103 23.4236 12.7171L23.424 12.7163C23.7552 12.1024 23.7552 11.3601 23.424 10.7462L23.4236 10.7455C22.2377 8.55166 20.548 6.49864 18.5904 4.98565C16.6377 3.47646 14.3595 2.4613 12.0112 2.4613ZM10.0781 9.79752C11.1457 8.72991 12.8767 8.72991 13.9443 9.79752C15.0119 10.8651 15.0119 12.5961 13.9443 13.6637C12.8767 14.7313 11.1457 14.7313 10.0781 13.6637C9.01052 12.5961 9.01052 10.8651 10.0781 9.79752ZM8.86992 8.58931C10.6048 6.85442 13.4176 6.85442 15.1525 8.58931C16.8874 10.3242 16.8874 13.137 15.1525 14.8719C13.4176 16.6068 10.6048 16.6068 8.86992 14.8719C7.13503 13.137 7.13503 10.3242 8.86992 8.58931Z" fill="#E0DEEA"/>
</svg>
