<svg width="16" height="16" viewBox="0 0 16 16" fill="none" xmlns="http://www.w3.org/2000/svg">
<path fill-rule="evenodd" clip-rule="evenodd" d="M5.36907 3.90481C5.36907 2.45189 6.5471 1.27386 8.00002 1.27386C9.45295 1.27386 10.631 2.45189 10.631 3.90481V4.91671H5.36907V3.90481ZM4.75926 6.13099C4.76015 6.131 4.76104 6.131 4.76193 6.131C4.76282 6.131 4.7637 6.131 4.76459 6.13099H11.2355C11.2363 6.131 11.2372 6.131 11.2381 6.131C11.239 6.131 11.2399 6.131 11.2408 6.13099H12.0475C12.6067 6.13099 13.0594 6.58369 13.0594 7.1429V13.6191C13.0594 14.1783 12.6067 14.631 12.0475 14.631H3.95226C3.39306 14.631 2.94036 14.1783 2.94036 13.6191V7.1429C2.94036 6.58369 3.39306 6.13099 3.95226 6.13099H4.75926ZM4.15479 4.91671V3.90481C4.15479 1.78125 5.87647 0.0595703 8.00002 0.0595703C10.1236 0.0595703 11.8453 1.78125 11.8453 3.90481V4.91671H12.0475C13.2773 4.91671 14.2737 5.91306 14.2737 7.1429V13.6191C14.2737 14.8489 13.2773 15.8453 12.0475 15.8453H3.95226C2.72243 15.8453 1.72607 14.8489 1.72607 13.6191V7.1429C1.72607 5.91306 2.72243 4.91671 3.95226 4.91671H4.15479ZM8.85856 10.2277C8.78163 10.3047 8.69695 10.3691 8.60703 10.4211V12.0729C8.60703 12.4082 8.3352 12.6801 7.99988 12.6801C7.66457 12.6801 7.39274 12.4082 7.39274 12.0729V10.421C7.30285 10.3691 7.2182 10.3046 7.1413 10.2277C6.66709 9.75351 6.66709 8.98467 7.1413 8.51046C7.61551 8.03625 8.38435 8.03625 8.85856 8.51046C9.33277 8.98467 9.33277 9.75351 8.85856 10.2277Z" fill="#E0DEEA"/>
</svg>
