<svg width="16" height="16" viewBox="0 0 16 16" fill="none" xmlns="http://www.w3.org/2000/svg">
<path d="M5.33331 2.6665L4.33331 3.6665" stroke="#8C8A97" stroke-linecap="round" stroke-linejoin="round"/>
<path d="M4.33331 1.6665L5.33331 2.6665" stroke="#8C8A97" stroke-linecap="round" stroke-linejoin="round"/>
<path d="M4 2.6665C2.89533 2.6665 2 3.56184 2 4.6665" stroke="#8C8A97" stroke-linecap="round" stroke-linejoin="round"/>
<path d="M4 2.66634H5.33333" stroke="#8C8A97" stroke-linecap="round" stroke-linejoin="round"/>
<path d="M10.6667 13.333L11.6667 12.333" stroke="#8C8A97" stroke-linecap="round" stroke-linejoin="round"/>
<path d="M11.6667 14.333L10.6667 13.333" stroke="#8C8A97" stroke-linecap="round" stroke-linejoin="round"/>
<path d="M12 13.333C13.1047 13.333 14 12.4377 14 11.333" stroke="#8C8A97" stroke-linecap="round" stroke-linejoin="round"/>
<path d="M12 13.3333H10.6667" stroke="#8C8A97" stroke-linecap="round" stroke-linejoin="round"/>
<path fill-rule="evenodd" clip-rule="evenodd" d="M6.33335 13.3333C8.35002 13.3333 10 11.6833 10 9.66667C10 7.65 8.35002 6 6.33335 6C4.31669 6 2.66669 7.65 2.66669 9.66667C2.66669 10.4893 2.94469 11.2487 3.40669 11.8613C4.07669 12.7527 5.13935 13.3333 6.33335 13.3333Z" stroke="#8C8A97" stroke-linecap="round" stroke-linejoin="round"/>
<path d="M12.2593 3.74072C13.6853 5.16672 13.6853 7.50006 12.2593 8.92606C12.1453 9.04006 12.0207 9.13539 11.8947 9.22806" stroke="#8C8A97" stroke-linecap="round" stroke-linejoin="round"/>
<path d="M12.2593 3.7404C10.8333 2.3144 8.50001 2.3144 7.07401 3.7404C6.96068 3.85373 6.86334 3.97707 6.76868 4.10173" stroke="#8C8A97" stroke-linecap="round" stroke-linejoin="round"/>
</svg>
